<svg xmlns="http://www.w3.org/2000/svg" width="48" height="33.934" viewBox="0 0 48 33.934">
  <path id="discord_new" d="M42.014,10.342a1.564,1.564,0,0,0-.66-.507l-.747-.3a37.065,37.065,0,0,0-7.351-2.46,3.778,3.778,0,0,0-3.87,2.039,36.426,36.426,0,0,0-4.331-.125,37.558,37.558,0,0,0-4.406.125,3.751,3.751,0,0,0-3.854-2A40.959,40.959,0,0,0,8.679,9.834a1.564,1.564,0,0,0-.66.507A32.883,32.883,0,0,0,1.25,34.773,1.57,1.57,0,0,0,2,35.944,49.678,49.678,0,0,0,12.11,40.758a3.67,3.67,0,0,0,4.162-1.406L17.7,37.265a32.339,32.339,0,0,0,7.319.963,31.972,31.972,0,0,0,7.247-.967l1.5,2.137a3.627,3.627,0,0,0,2.976,1.554,3.676,3.676,0,0,0,1.156-.187,49.675,49.675,0,0,0,10.134-4.822,1.571,1.571,0,0,0,.75-1.17A32.886,32.886,0,0,0,42.014,10.342ZM17.168,28.9c-2.011,0-3.665-2.118-3.665-4.693s1.655-4.693,3.665-4.693,3.665,2.118,3.665,4.693S19.179,28.9,17.168,28.9Zm14.615.028c-1.992,0-3.631-2.131-3.631-4.721s1.639-4.721,3.631-4.721,3.631,2.131,3.631,4.721S33.775,28.933,31.783,28.933Z" transform="translate(-1.016 -7.018)" fill="#fff"/>
</svg>
