<svg xmlns="http://www.w3.org/2000/svg" width="40.79" height="33.144" viewBox="0 0 40.79 33.144">
  <path id="twitter" d="M41.056,7.036a16.81,16.81,0,0,1-4.807,1.32,8.414,8.414,0,0,0,3.68-4.633,16.76,16.76,0,0,1-5.317,2.03,8.375,8.375,0,0,0-14.259,7.634A23.763,23.763,0,0,1,3.1,4.639,8.382,8.382,0,0,0,5.7,15.815,8.3,8.3,0,0,1,1.9,14.769v.106a8.376,8.376,0,0,0,6.712,8.206,8.3,8.3,0,0,1-2.2.293,8.191,8.191,0,0,1-1.575-.149,8.372,8.372,0,0,0,7.814,5.809,16.749,16.749,0,0,1-10.392,3.58A17.469,17.469,0,0,1,.266,32.5a23.683,23.683,0,0,0,12.827,3.755c15.392,0,23.81-12.752,23.81-23.8,0-.367-.006-.729-.025-1.09a16.742,16.742,0,0,0,4.178-4.327" transform="translate(-0.266 -3.113)" fill="#2b1d5c"/>
</svg>
